<?xml version="1.0" encoding="utf-8"?>
<svg xmlns="http://www.w3.org/2000/svg" viewBox="0 0 500 500">
  <path fill="#000000" opacity="1.000000" stroke="none" d="M 171.574 105.926 C 157.962 103.301 144.62 103.72 131.307 103.846 C 127.561 103.882 125.439 103.236 125.46 98.704 C 125.48 94.198 127.614 93.503 131.341 93.537 C 154.804 93.751 178.269 93.882 201.733 93.959 C 207.889 93.979 214.046 93.569 220.201 93.598 C 250.35 93.739 280.498 93.997 310.646 94.128 C 317.137 94.157 323.631 93.871 330.122 93.656 C 333.978 93.529 336.032 95 336.029 99.148 C 336.025 103.483 333.388 103.798 330.056 103.795 C 286.241 103.751 242.426 103.758 198.611 103.752 C 197.792 103.752 196.973 103.752 196.154 103.752 C 201.91 105.31 207.679 106.63 213.396 108.187 C 231.057 112.997 248.385 118.942 261.632 132.05 C 267.612 137.967 273.477 139.818 281.413 139.603 C 298.061 139.152 314.729 139.47 331.389 139.508 C 333.863 139.514 336.514 139.225 337.121 142.787 C 337.895 147.319 336.723 148.947 332.087 148.958 C 316.26 148.997 300.433 148.967 284.606 148.978 C 282.943 148.979 281.265 148.959 279.618 149.156 C 276.902 149.482 275.991 150.669 277.047 153.591 C 285.377 176.655 279.812 197.338 265.955 216.525 C 265.182 217.596 264.49 218.834 262.968 218.963 C 250.874 219.982 238.821 218.196 226.134 219.479 C 228.002 212.634 230.803 207.369 232.178 201.548 C 236.057 185.138 235.555 168.919 231.504 152.681 C 230.59 149.021 227.788 148.957 224.835 148.959 C 200.345 148.975 175.855 148.95 151.365 148.973 C 144.536 148.979 137.702 148.968 130.881 149.229 C 127.521 149.357 125.54 148.875 125.517 144.797 C 125.495 140.957 126.736 139.421 130.665 139.434 C 158.154 139.52 185.643 139.472 213.131 139.466 C 214.131 139.466 215.144 139.567 216.128 139.443 C 218.846 139.1 222.787 140.803 224.013 138.202 C 225.493 135.064 221.85 132.657 219.915 130.363 C 208.761 117.143 193.903 110.56 177.378 107.084 C 175.589 106.707 173.797 106.347 171.574 105.926 Z"/>
  <path fill="#000000" opacity="1.000000" stroke="none" d="M 274.455 347.325 C 276.17 358.923 278.596 369.935 281.19 380.926 C 282.349 385.835 284.201 390.437 286.325 394.922 C 290.312 403.339 297.997 408.206 305.119 407.211 C 312.2 406.222 317.768 400.051 319.542 390.613 C 320.954 383.096 322.015 375.502 321.924 367.813 C 321.884 364.386 322.61 362.074 326.911 362.22 C 331.183 362.366 331.238 364.971 331.105 367.974 C 330.677 377.622 330.069 387.269 327.338 396.591 C 322.181 414.19 310.948 423.182 292.755 424.538 C 266.247 426.513 244.849 411.744 237.363 386.018 C 231.596 366.199 229.265 345.64 224.757 325.545 C 223.883 321.651 223.144 317.722 222.126 313.867 C 221.173 310.259 222.142 308.448 226.092 308.469 C 237.919 308.529 249.746 308.557 261.573 308.472 C 264.737 308.449 266.606 309.638 267.271 312.771 C 268.892 320.404 270.834 327.982 272.101 335.672 C 272.724 339.455 273.584 343.167 274.455 347.325 Z"/>
  <path opacity="1.000000" stroke="none" d="M 266.654 278.64 C 266.654 274.743 266.654 271.333 266.654 267.645 C 262.673 268.402 262.06 270.637 262.041 273.295 C 262.004 278.623 262.079 283.955 261.896 289.278 C 261.714 294.586 259.475 297.116 255.358 296.866 C 250.595 296.576 249.188 293.086 249.3 289.226 C 249.37 286.823 247.253 282.417 251.491 282.265 C 255.251 282.13 253.517 286.326 253.934 288.694 C 254.158 289.964 253.772 291.4 255.157 292.386 C 257.225 292.573 257.552 291.056 257.62 289.535 C 257.732 287.042 257.554 284.535 257.703 282.046 C 258.069 275.936 258.511 270.759 249.809 269.282 C 243.826 268.266 240.698 262.418 240.639 255.89 C 240.584 249.73 240.592 243.568 240.62 237.408 C 240.665 227.631 246.647 221.392 255.873 221.448 C 264.756 221.502 270.609 227.828 270.596 237.434 C 270.581 248.586 270.525 259.738 270.472 270.89 C 270.439 277.717 270.418 284.544 270.32 291.369 C 270.193 300.095 264.469 305.8 255.9 305.832 C 247.133 305.865 240.9 299.99 240.647 291.421 C 240.588 289.425 240.577 287.423 240.647 285.428 C 240.691 284.18 240.284 282.385 242.213 282.326 C 244.342 282.261 244.265 284.113 244.281 285.6 C 244.309 288.265 244.325 290.904 245.072 293.516 C 246.648 299.028 251.75 302.859 256.869 302.227 C 261.881 301.609 266.42 296.549 266.618 291.115 C 266.764 287.124 266.652 283.124 266.654 278.64 M 262.051 242.223 C 262.051 249.018 262.051 255.814 262.051 263.43 C 265.461 261.393 266.445 259.376 266.488 257.23 C 266.639 249.739 266.831 242.227 266.413 234.757 C 266.142 229.92 261.308 226.068 256.45 225.814 C 250.837 225.521 246.333 228.423 245.28 233.697 C 243.639 241.916 243.632 250.243 245.314 258.471 C 246.197 262.786 249.188 265.353 253.487 266.247 C 254.986 266.559 256.705 266.563 257.285 264.768 C 257.904 262.851 256.544 262.158 254.894 261.772 C 251.074 260.879 249.314 258.062 249.202 254.493 C 249.014 248.516 249.074 242.514 249.408 236.543 C 249.606 233.018 251.754 230.555 255.49 230.46 C 258.953 230.372 261.065 232.511 261.746 235.803 C 262.112 237.571 261.967 239.445 262.051 242.223 M 254.1 255.163 C 254.383 256.197 254.916 257.135 256.117 256.811 C 257.45 256.45 257.633 255.182 257.637 253.994 C 257.653 248.708 257.659 243.422 257.617 238.137 C 257.606 236.784 257.387 235.446 254.611 235.16 C 253.149 241.476 254.206 247.966 254.1 255.163 Z" style="fill: rgb(123, 123, 123);"/>
  <path opacity="1.000000" stroke="none" d="M 236.326 227.592 C 237.244 253.753 237.069 279.456 236.412 305.1 C 232.693 305.577 232.735 303.506 232.7 301.707 C 232.612 297.212 232.624 292.715 232.626 288.22 C 232.628 281.954 232.612 281.922 226.139 281.884 C 224.474 281.874 222.809 281.89 221.144 281.916 C 219.035 281.948 217.617 282.749 217.639 285.165 C 218.938 287.097 220.958 286.463 222.649 286.343 C 226.653 286.057 228.063 288.003 227.944 291.697 C 227.848 294.691 227.935 297.692 227.81 300.685 C 227.735 302.457 227.713 304.379 225.448 305.349 C 222.333 302.857 223.617 299.434 223.678 296.572 C 223.77 292.293 222.355 290.446 217.94 290.703 C 214.128 290.925 210.283 290.713 206.458 290.561 C 203.794 290.456 202.56 289.393 203.49 286.369 C 209.745 266.033 215.868 245.657 222.088 225.31 C 222.592 223.661 222.927 221.115 225.373 221.74 C 228.172 222.455 226.563 224.836 226.115 226.337 C 221.836 240.668 217.43 254.961 213.06 269.265 C 212.622 270.697 212.175 272.125 211.744 273.558 C 211.363 274.827 210.703 276.297 212.426 276.99 C 214.191 277.699 215.281 276.627 215.812 275.014 C 217.372 270.279 218.948 265.549 220.405 260.782 C 223.899 249.348 227.287 237.881 230.824 226.46 C 231.403 224.589 231.297 221.515 234.472 222.115 C 237.26 222.642 236.035 225.322 236.326 227.592 M 232.588 251.233 C 232.588 246.871 232.588 242.508 232.588 236.734 C 226.054 249.362 228.376 261.483 228 273.295 C 227.95 274.886 227.708 277.044 230.069 277.138 C 232.782 277.245 232.521 274.947 232.534 273.156 C 232.585 266.17 232.579 259.183 232.588 251.233 M 221.953 271.296 C 221.557 273.188 219.423 274.891 221.375 277.523 C 224.886 274.906 223.203 271.816 222.578 268.9 C 222.42 269.491 222.263 270.082 221.953 271.296 M 211.922 282.042 C 209.664 281.83 208.347 282.826 208.562 285.12 C 208.676 286.332 209.959 286.527 210.927 286.252 C 213.042 285.652 214.018 284.43 211.922 282.042 Z" style="fill: rgb(123, 123, 123);"/>
</svg>